<?xml version="1.0" standalone="no"?>
<!DOCTYPE svg PUBLIC "-//W3C//DTD SVG 20010904//EN"
 "http://www.w3.org/TR/2001/REC-SVG-20010904/DTD/svg10.dtd">
<svg version="1.0" xmlns="http://www.w3.org/2000/svg"
 width="512.000000pt" height="512.000000pt" viewBox="0 0 512.000000 512.000000"
 preserveAspectRatio="xMidYMid meet">

<g transform="translate(0.000000,512.000000) scale(0.100000,-0.100000)"
fill="#000000" stroke="none">
<path fill="currentColor" d="M1249 5092 c-81 -21 -154 -67 -218 -138 -96 -104 -121 -194 -121
-431 l0 -141 -222 -4 c-219 -3 -224 -4 -283 -31 -79 -37 -156 -114 -192 -191
l-28 -61 0 -1905 c0 -1792 1 -1908 18 -1955 20 -59 70 -124 130 -171 89 -69
-93 -64 2231 -64 l2101 0 50 24 c72 34 136 95 176 168 l34 63 3 1912 c2 1905
2 1912 -18 1966 -38 102 -121 185 -222 224 -34 13 -92 17 -265 21 l-221 4 -4
191 -3 192 -36 76 c-65 136 -190 234 -334 260 -35 7 -122 9 -210 7 -166 -6
-222 -20 -312 -82 -63 -43 -137 -136 -165 -206 -20 -49 -23 -77 -26 -247 l-4
-193 -548 0 -548 0 -4 183 c-4 159 -8 190 -28 242 -59 155 -189 265 -344 294
-92 17 -309 13 -387 -7z m365 -371 l26 -24 0 -454 0 -454 -25 -24 c-23 -24
-29 -25 -155 -25 -124 0 -132 1 -155 24 -15 15 -26 41 -31 72 -4 26 -4 230 -1
452 7 497 -8 463 199 459 108 -2 118 -4 142 -26z m2165 18 c61 -21 61 -23 61
-503 l0 -434 -26 -31 -26 -31 -128 0 c-71 0 -136 3 -145 6 -43 17 -45 40 -45
499 0 293 4 443 11 456 6 12 25 27 42 34 39 17 211 20 256 4z m791 -2924 l0
-1465 -2012 2 -2013 3 -3 1463 -2 1462 2015 0 2015 0 0 -1465z"/>
<path fill="currentColor" d="M3665 2629 c-11 -6 -307 -298 -657 -648 l-638 -636 -328 328 c-302
301 -330 327 -362 327 -29 0 -46 -12 -128 -94 -93 -93 -95 -96 -89 -133 6 -34
53 -84 439 -470 425 -425 434 -433 473 -433 39 0 49 9 787 747 506 506 751
758 758 779 16 46 2 69 -93 162 -88 85 -114 97 -162 71z"/>
</g>
</svg>
